<svg width="198" height="198" xmlns="http://www.w3.org/2000/svg">
 <style type="text/css">.st0{fill:#FFFFFF;}</style>

 <g>
  <title>background</title>
  <rect fill="none" id="canvas_background" height="200" width="200" y="-1" x="-1"/>
 </g>
 <g>
  <title>Layer 1</title>
  <path id="svg_39" d="m31.22274,99.55556" opacity="0.5" stroke-opacity="null" stroke-width="1.5" fill="#3e5560"/>
  <path id="svg_40" d="m31.22274,109.555485l68.776508,9.332511" opacity="0.5" stroke-opacity="null" stroke-width="1.5" fill="#3e5560"/>
  <ellipse stroke="null" ry="97.221491" rx="97.221491" id="svg_41" cy="97.888905" cx="98.444453" stroke-opacity="null" stroke-width="1.5" fill="#3c5560"/>
  <g stroke="null" id="svg_35">
   <path stroke="null" fill="#3c5560" id="svg_31" d="m145.015408,55.104636c1.896685,1.896685 1.580571,8.851199 -3.477257,19.75714c-4.899771,10.115656 -12.802627,21.337712 -22.286054,31.453367c-3.635314,-1.1064 -7.744799,-0.158057 -10.589827,2.686971c-4.109485,4.109485 -4.109485,10.905941 0,15.015427c4.109485,4.109485 10.905941,4.109485 15.015427,0c2.845028,-2.845028 3.793371,-6.954513 2.686971,-10.589827c1.422514,-1.422514 2.686971,-3.003085 3.951428,-4.425599c0.158057,0.158057 0,0 0,0c0.948343,-1.1064 1.896685,-2.2128 2.686971,-3.161142c0,0 0.158057,0.158057 0,0c7.270628,-8.693142 13.276798,-18.018512 17.386283,-26.553597c6.954513,-14.541255 7.428685,-25.28914 1.580571,-31.137253c-8.693142,-8.535085 -24.656911,0.948343 -45.204337,17.228226c0.948343,0.790286 1.738628,1.738628 2.686971,2.686971c18.966855,-14.225141 32.243653,-16.279884 35.562853,-12.960684z" class="st0"/>
   <path stroke="null" fill="#3c5560" id="svg_32" d="m135.690038,108.211829c-0.948343,1.1064 -1.896685,2.2128 -2.845028,3.3192c10.43177,12.486513 15.015427,23.866625 15.015427,30.346967c0,2.054743 -0.474171,3.477257 -1.264457,4.267542c-4.425599,4.267542 -23.07634,-1.896685 -42.517366,-21.495769l-7.112571,-7.112571c0.474171,-3.161142 -0.632228,-6.480342 -3.003085,-8.851199c-4.109485,-4.109485 -10.905941,-4.109485 -15.015427,0c-4.109485,4.109485 -4.109485,10.905941 0,15.015427c3.3192,3.3192 8.21897,3.951428 12.170398,2.054743l4.741714,4.583657c-0.158057,0.158057 0,0 0,0c0.790286,0.790286 1.896685,1.896685 3.161142,3.161142c0,0 -0.158057,0.158057 0,0c13.75097,13.276798 30.979196,23.708568 43.623766,23.708568c4.425599,0 8.21897,-1.264457 11.063999,-4.109485c2.845028,-2.686971 4.267542,-6.638399 4.267542,-11.380113c-0.158057,-9.957599 -9.957599,-20.86354 -22.286054,-33.50811z" class="st0"/>
   <path stroke="null" fill="#3c5560" id="svg_33" d="m58.71622,144.40691c-2.528914,-2.528914 -1.896685,-9.32537 1.738628,-17.544341c4.425599,-10.115656 12.64457,-21.495769 23.07634,-31.927539l0.316114,-0.316114c3.477257,0.790286 7.428685,0 10.115656,-2.845028c4.109485,-4.109485 4.109485,-10.905941 0,-15.015427c-4.109485,-4.109485 -10.905941,-4.109485 -15.015427,0c-3.003085,3.003085 -3.793371,7.428685 -2.528914,11.063999c-1.422514,1.422514 -2.845028,3.003085 -4.267542,4.425599c0,-0.158057 0,0 0,0c-0.790286,0.948343 -1.738628,1.896685 -2.686971,3.161142l0,0l0,0c-0.158057,-0.158057 0,0 0,0c-7.902856,9.167313 -14.225141,18.65074 -18.018512,27.343882c-5.531999,12.802627 -5.373942,22.918283 0.474171,28.766396c3.003085,3.003085 7.112571,4.425599 12.012341,4.425599c8.693142,0 20.073255,-9.799542 32.40171,-19.75714c-1.264457,-1.264457 -2.370857,-2.370857 -3.3192,-3.161142c-16.754055,12.012341 -30.346967,15.331541 -34.298396,11.380113z" class="st0"/>
   <path stroke="null" fill="#3c5560" id="svg_34" d="m69.780218,89.719146c-10.589827,-12.802627 -15.489598,-24.340797 -15.489598,-30.821139c0,-2.054743 0.474171,-3.477257 1.264457,-4.267542c4.583657,-4.425599 23.234397,1.738628 42.517366,21.179654l7.586742,7.902856c-0.158057,2.845028 0.948343,5.848114 3.161142,8.060913c4.109485,4.109485 10.905941,4.109485 15.015427,0c4.109485,-4.109485 4.109485,-10.905941 0,-15.015427c-3.477257,-3.477257 -8.535085,-3.951428 -12.64457,-1.738628l-4.425599,-4.741714l-1.422514,-1.422514c-0.474171,-0.474171 -0.790286,-0.790286 -1.264457,-1.264457c-18.808798,-18.334626 -43.93988,-31.453367 -55.47805,-20.231312c-2.686971,2.845028 -4.267542,6.638399 -4.267542,11.380113c0,10.115656 10.273713,21.653826 22.444111,34.140338c1.1064,-1.1064 2.054743,-2.2128 3.003085,-3.161142z" class="st0"/>
  </g>
 </g>
</svg>